<svg xmlns="http://www.w3.org/2000/svg" width="15.978" height="15.978" viewBox="0 0 15.978 15.978"><defs><style>.a{fill:#89aae3;}</style></defs><path class="a" d="M6.294,4.6V16.972a.539.539,0,0,1-.538.538h0a.539.539,0,0,1-.538-.538V5.833H4.6A1.228,1.228,0,0,0,3.375,7.062V18.124A1.228,1.228,0,0,0,4.6,19.353H18.166a1.188,1.188,0,0,0,1.187-1.187V4.6a1.228,1.228,0,0,0-1.229-1.229L7.446,3.452A1.1,1.1,0,0,0,6.294,4.6ZM8.829,5.833h3.226a.539.539,0,0,1,.538.538h0a.539.539,0,0,1-.538.538H8.829a.539.539,0,0,1-.538-.538h0A.539.539,0,0,1,8.829,5.833Zm0,6.145h5.684a.539.539,0,0,1,.538.538h0a.539.539,0,0,1-.538.538H8.829a.539.539,0,0,1-.538-.538h0A.539.539,0,0,1,8.829,11.979Zm7.528,4.148H8.829a.539.539,0,0,1-.538-.538h0a.539.539,0,0,1,.538-.538h7.528a.539.539,0,0,1,.538.538h0A.539.539,0,0,1,16.357,16.127Zm0-6.145H8.829a.539.539,0,0,1-.538-.538h0a.539.539,0,0,1,.538-.538h7.528a.539.539,0,0,1,.538.538h0A.539.539,0,0,1,16.357,9.981Z" transform="translate(-3.375 -3.375)"/></svg>