<svg xmlns="http://www.w3.org/2000/svg" width="10.626" height="20" viewBox="0 0 10.626 20"><path d="M0,0H2.1V7.76a.625.625,0,0,0,.625.625H6.062a.625.625,0,0,0,.625-.625V0h1.99A.626.626,0,0,0,9.3-.547L9.712-3.88a.627.627,0,0,0-.62-.7H6.687c.1-2.059-.362-2.668.977-2.668C8.571-7.359,10-6.9,10-7.876v-2.981a.626.626,0,0,0-.54-.619,22.442,22.442,0,0,0-2.579-.138c-5.841,0-4.639,6.477-4.783,7.031H0a.625.625,0,0,0-.625.625V-.625A.625.625,0,0,0,0,0M.625-3.333h2.1a.625.625,0,0,0,.625-.625V-6.583c0-2.4,1.288-3.78,3.534-3.78.731,0,1.4.036,1.868.072V-8.5c-.335.171-3.313-.737-3.313,2.247v2.3a.625.625,0,0,0,.625.625H8.383l-.26,2.084H6.062a.625.625,0,0,0-.625.625V7.136H3.349V-.624a.625.625,0,0,0-.625-.625H.625Z" transform="translate(0.625 11.614)"/></svg>