<svg xmlns="http://www.w3.org/2000/svg" xmlns:xlink="http://www.w3.org/1999/xlink" width="168.424" height="38.863" viewBox="0 0 168.424 38.863"><defs><style>.a,.e{fill:#00091c;}.b{fill:url(#a);}.c{fill:url(#b);}.d{fill:url(#c);}.e{font-size:10px;font-family:Raleway-MediumItalic, Raleway;font-weight:500;font-style:italic;letter-spacing:0.2em;}</style><linearGradient id="a" x1="0.204" y1="2.054" x2="0.786" y2="-1.11" gradientUnits="objectBoundingBox"><stop offset="0" stop-color="#a26923"/><stop offset="1" stop-color="#d29d50"/></linearGradient><linearGradient id="b" x1="0.186" y1="1.526" x2="0.786" y2="-0.296" xlink:href="#a"/><linearGradient id="c" x1="-0.285" y1="0.759" x2="0.883" y2="-0.075" xlink:href="#a"/></defs><g transform="translate(-167.618 -401.644)"><g transform="translate(167.618 401.644)"><path class="a" d="M169.9,401.644h4.867a.358.358,0,0,1,.291.566l-2.372,3.311a.357.357,0,0,1-.29.149h-4.416a.358.358,0,0,1-.342-.463l1.92-3.311A.357.357,0,0,1,169.9,401.644Z" transform="translate(-167.618 -401.644)"/><g transform="translate(7.75)"><path class="b" d="M178.519,401.644h19.233a.358.358,0,0,1,.291.566l-2.372,3.311a.357.357,0,0,1-.29.149H176.6a.358.358,0,0,1-.342-.463l1.92-3.311A.357.357,0,0,1,178.519,401.644Z" transform="translate(-176.24 -401.644)"/><path class="c" d="M177.032,413.263h14.036a.359.359,0,0,0,.295-.156l1.925-3.036a.358.358,0,0,0-.295-.562h-7.6c-.806,0-.578-.279-.141-1.173h0a.358.358,0,0,0-.293-.564l-5.211,0a.357.357,0,0,0-.306.172l-2.715,4.776A.359.359,0,0,0,177.032,413.263Z" transform="translate(-176.284 -402.264)"/><path class="d" d="M183.951,416.941a.482.482,0,0,1,.437-.689l6.118.034c.124,0,.156.064.082.17l-5.716,9a.482.482,0,0,1-.841-.051Z" transform="translate(-177.016 -403.122)"/></g><g transform="translate(33.041 1.87)"><path class="a" d="M210.647,407.976l-.5,4.669h13.116l-.429,3.987H209.717l-.618,5.744h-4.722l1.974-18.361h19.411l-.425,3.96Z" transform="translate(-204.378 -403.754)"/><path class="a" d="M242.1,418.468H231.1l-2.387,3.908h-5.194l11.444-18.361h6.375l7.522,18.361h-5.22Zm-1.38-3.514-2.924-7.45-4.553,7.45Z" transform="translate(-206.315 -403.754)"/><path class="a" d="M256.574,416.026c-.209,1.941,1.269,2.833,7.251,2.833,4.957,0,6.512-.551,6.667-1.994.164-1.521-.858-1.783-6.781-2.072-7.962-.368-11-1.626-10.558-5.745.434-4.039,4.691-5.325,11.564-5.325,6.926,0,10.937,1.731,10.449,6.269h-4.722c.217-2.02-1.749-2.519-6.655-2.519-4.643,0-5.793.446-5.94,1.81-.152,1.416.921,1.678,6.239,1.994,7.2.393,11.642.786,11.142,5.429-.527,4.9-5.277,5.9-12.071,5.9-7.529,0-11.876-1.285-11.307-6.584Z" transform="translate(-209.175 -403.724)"/><path class="a" d="M301.474,407.976h-8.919l-1.548,14.4h-4.722l1.548-14.4h-8.919l.426-3.96H301.9Z" transform="translate(-211.918 -403.754)"/></g><g transform="translate(122.373 1.87)"><path class="a" d="M316.4,403.724c7.319,0,10.693,2.78,10.6,8.079h-4.8c-.128-2.963-2.286-4.118-6.221-4.118-4.8,0-7,1.7-7.406,5.455-.406,3.778,1.453,5.509,6.228,5.509,3.909,0,6.344-1.181,7.112-4.171h4.8c-1.045,5.325-5.019,8.131-12.338,8.131-8.08,0-11.181-3.357-10.525-9.469C304.5,407.055,308.324,403.724,316.4,403.724Z" transform="translate(-303.763 -403.724)"/><path class="a" d="M345.378,418.468H334.387L332,422.377H326.8l11.444-18.361h6.374l7.522,18.361h-5.22ZM344,414.954l-2.924-7.45-4.552,7.45Z" transform="translate(-306.094 -403.754)"/></g></g><text class="e" transform="translate(200.683 438.507)"><tspan x="0" y="0">FAST &amp; CONVENIENT</tspan></text></g></svg>