<svg xmlns="http://www.w3.org/2000/svg" width="20" height="15.413" viewBox="0 0 20 15.413"><g transform="translate(-505 -12.293)"><path d="M0,0A.626.626,0,0,0-.945.537V6.37A.627.627,0,0,0,0,6.908L4.891,3.995a.626.626,0,0,0,0-1.074ZM.305,5.271V1.637l3.046,1.82Z" transform="translate(513.282 16.546)"/><path d="M0,0A50.427,50.427,0,0,0-13.173,0a3.643,3.643,0,0,0-3.041,3.03,24.347,24.347,0,0,0,0,8.488,3.641,3.641,0,0,0,3.041,3.03,46.439,46.439,0,0,0,6.6.433A46.321,46.321,0,0,0,0,14.549a3.646,3.646,0,0,0,3.04-3.03,24.406,24.406,0,0,0,0-8.49A3.644,3.644,0,0,0,0,0M1.808,11.311a2.4,2.4,0,0,1-1.991,2,49.069,49.069,0,0,1-12.807,0,2.4,2.4,0,0,1-1.993-2,22.9,22.9,0,0,1,0-8.073,2.4,2.4,0,0,1,1.994-2,45.292,45.292,0,0,1,6.4-.419,45.305,45.305,0,0,1,6.4.419,2.4,2.4,0,0,1,1.992,2,22.856,22.856,0,0,1,0,8.073" transform="translate(521.587 12.726)"/></g></svg>